
<svg width="253px" height="518px" viewBox="0 0 253 518" version="1.1" xmlns="http://www.w3.org/2000/svg" xmlns:xlink="http://www.w3.org/1999/xlink">
    <defs>
        <linearGradient x1="0%" y1="99.2987132%" x2="159.673713%" y2="99.2987156%" id="linearGradient-1">
            <stop stop-color="#F02FC2" offset="0%"></stop>
            <stop stop-color="#1D2671" offset="100%"></stop>
        </linearGradient>
    </defs>
    <g id="Landing" stroke="none" stroke-width="1" fill="none" fill-rule="evenodd" opacity="0.77420709">
        <g id="1.Plane" transform="translate(-1027.000000, -166.000000)">
            <g id="Background-gross-lines" transform="translate(1027.000000, 166.000000)">
                <rect id="Rectangle-3" fill="url(#linearGradient-1)" transform="translate(176.500000, 4.000000) scale(1, -1) translate(-176.500000, -4.000000) " x="100" y="0" width="153" height="8" rx="4"></rect>
                <rect id="Rectangle-3-Copy-2" fill="url(#linearGradient-1)" transform="translate(176.500000, 208.000000) scale(1, -1) translate(-176.500000, -208.000000) " x="100" y="204" width="153" height="8" rx="4"></rect>
                <rect id="Rectangle-3-Copy-4" fill="url(#linearGradient-1)" transform="translate(176.500000, 412.000000) scale(1, -1) translate(-176.500000, -412.000000) " x="100" y="408" width="153" height="8" rx="4"></rect>
                <rect id="Rectangle-3-Copy" fill="url(#linearGradient-1)" transform="translate(126.500000, 106.000000) scale(1, -1) translate(-126.500000, -106.000000) " x="0" y="102" width="253" height="8" rx="4"></rect>
                <rect id="Rectangle-3-Copy-3" fill="url(#linearGradient-1)" transform="translate(126.500000, 310.000000) scale(1, -1) translate(-126.500000, -310.000000) " x="0" y="306" width="253" height="8" rx="4"></rect>
                <rect id="Rectangle-3-Copy-5" fill="url(#linearGradient-1)" transform="translate(126.500000, 514.000000) scale(1, -1) translate(-126.500000, -514.000000) " x="0" y="510" width="253" height="8" rx="4"></rect>
                <circle id="Oval" fill="#F02FC2" cx="87" cy="412" r="4"></circle>
                <circle id="Oval-Copy-2" fill="#F02FC2" cx="80" cy="4" r="4"></circle>
                <circle id="Oval-Copy" fill="#F02FC2" cx="72" cy="412" r="4"></circle>
            </g>
        </g>
    </g>
</svg>